<svg width="132" height="132" viewBox="0 0 132 132" fill="none" xmlns="http://www.w3.org/2000/svg">
<g opacity="0.24">
<g clip-path="url(#clip0)">
<path d="M57.0131 69.0592L56.9835 61.7569L63.9749 59.1632L56.9341 56.8573L56.7866 49.6626L52.5155 55.4675L45.5288 53.3136L49.5844 59.4072L45.6258 65.512L52.5214 63.2267L57.0131 69.0592Z" fill="white"/>
<path d="M57.8862 76.735H70.409L86.1037 59.3781L70.3333 42H57.9313L72.681 59.3526L57.8862 76.735Z" fill="white"/>
<path d="M30 86.0777C30 83.8221 31.9069 81.6039 34.5131 81.6039C36.2883 81.6039 38.2805 83.6053 38.2805 83.6053L36.1221 84.8611C36.1221 84.8611 35.7656 83.9193 34.4346 83.9193C33.0816 83.9193 32.2855 85.0302 32.2762 86.0385C32.2657 87.1655 33.1897 88.1576 34.3561 88.1576C35.2713 88.1576 36.2398 87.1765 36.2398 87.1765L38.0843 88.5108C38.0843 88.5108 36.7041 90.1983 34.3953 90.1983C32.0821 90.1983 30 88.8034 30 86.0777Z" fill="white"/>
<path fill-rule="evenodd" clip-rule="evenodd" d="M43.4573 81.718C41.0298 81.718 39.0654 83.657 39.0654 86.0411C39.0654 88.4253 41.0298 90.3566 43.4573 90.3566C45.8847 90.3566 47.8567 88.4253 47.8567 86.0411C47.8567 83.657 45.8847 81.718 43.4573 81.718ZM43.4573 83.8796C44.671 83.8796 45.657 84.8491 45.657 86.0411C45.657 87.2332 44.671 88.1951 43.4573 88.1951C42.2435 88.1951 41.2652 87.2332 41.2652 86.0411C41.2652 84.8491 42.2435 83.8796 43.4573 83.8796Z" fill="white"/>
<path fill-rule="evenodd" clip-rule="evenodd" d="M49.5066 81.8402V89.9212H51.6223V85.5538L55.1129 89.9212H57.198V81.8402H55.0747V86.5628L51.6223 81.8402H49.5066Z" fill="white"/>
<path fill-rule="evenodd" clip-rule="evenodd" d="M58.9243 81.8402L61.7809 89.9212H64.9278L67.7844 81.8402H65.4701L63.3544 88.2561L61.2386 81.8402H58.9243Z" fill="white"/>
<path fill-rule="evenodd" clip-rule="evenodd" d="M69.3042 81.8402V89.9212H75.8041V88.0575H71.4199V86.7056H75.3611V85.0558H71.4199V83.765H75.8041V81.8402H69.3042Z" fill="white"/>
<path fill-rule="evenodd" clip-rule="evenodd" d="M95.5 81.8402V89.9212H102V88.0575H97.6157V86.7056H101.557V85.0558H97.6157V83.765H102V81.8402H95.5Z" fill="white"/>
<path fill-rule="evenodd" clip-rule="evenodd" d="M78.1948 81.9932V89.9596H80.0738V86.8204H81.1507L82.8005 89.9596H85.2218L83.5872 86.553C85.7124 85.2788 85.2917 82.6119 82.9227 81.9932H78.1948ZM80.0356 83.9179H82.2048C82.9585 83.9179 82.9095 85.0865 82.2048 85.0865H80.0356V83.9179Z" fill="white"/>
<path d="M86.3508 88.8437C86.4341 89.3432 88.4034 90.2867 90.3468 90.2867C92.1314 90.2867 93.5658 89.4298 93.5658 87.7289C93.5658 85.6371 91.1238 85.1529 91.1238 85.1529C91.1238 85.1529 89.0949 85.1243 89.0426 84.1817C89.0179 83.7382 89.6359 83.4879 90.1803 83.4879C91.0717 83.4879 92.0673 84.3759 92.0673 84.3759L93.4825 82.8497C93.4825 82.8497 91.6918 81.4344 90.1803 81.4344C88.7369 81.4344 86.6838 82.3797 86.6838 84.3482C86.6838 86.023 89.0604 86.7934 89.0604 86.7934C89.0604 86.7934 91.5678 87.0604 91.5678 87.8447C91.5678 88.3784 90.6585 88.5384 90.1248 88.5384C88.8292 88.5384 87.7383 87.4007 87.7383 87.4007L86.3508 88.8437Z" fill="white"/>
</g>
</g>
<defs>
<clipPath id="clip0">
<rect width="72" height="48.3567" fill="white" transform="translate(30 42)"/>
</clipPath>
</defs>
</svg>
