<svg width="132" height="132" viewBox="0 0 132 132" fill="none" xmlns="http://www.w3.org/2000/svg">
<g opacity="0.24">
<path d="M29.1901 63.5117H27.1877V62.6577H24.7877V65.4406H26.7312V66.7804H24.7877V69.7547H25.465V70.9767H21.9165V69.7547H22.4466V62.6577H21.9165V61.0823H29.1901V63.5117Z" fill="white"/>
<path d="M56.0172 64.1153H54.4859V62.6577H52.719V69.7546H53.2049V70.9767H49.8478V69.7546H50.3337V62.6577H48.5669V64.1153C48.1546 64.1153 47.4478 64.1153 47.0503 64.1153V61.0822H56.0172V64.1153Z" fill="white"/>
<path d="M64.9106 65.1165C64.9106 66.2797 64.2627 66.9717 63.1731 66.9717H60.2578V69.7398H60.832V70.9619H57.3572V69.7398H57.8872V62.6429H57.3572V61.0674H63.1731C64.2922 61.0674 64.9106 61.7447 64.9106 62.9963V65.1165ZM60.2578 62.6576V65.7644H62.5842V62.6576H62.2308H60.2578Z" fill="white"/>
<path d="M73.421 69.7546V70.9767H70.7413C70.6676 70.5202 70.3879 68.665 70.3879 68.665H67.9143C67.9143 68.665 67.6492 70.5055 67.5756 70.9767H64.9695V69.7546H65.3818C65.3818 69.7546 66.9425 61.6417 67.0456 61.0969H71.4186C71.5216 61.6417 73.0676 69.7546 73.0676 69.7546H73.421ZM68.8271 62.8785L68.194 67.0159H70.1523L69.5339 62.8785H68.8271Z" fill="white"/>
<path d="M87.1142 62.6577V65.5141H89.4848V62.6577H89.1167H87.1142ZM91.7964 70.9767H89.5879C89.5879 70.6233 89.6026 66.854 89.6026 66.854H87.1142V70.9767H84.2136V69.7546H84.7437V62.6724H84.2136V61.0969H90.059C91.1633 61.0969 91.8112 61.7889 91.8112 62.9521V64.6454C91.8112 65.5435 90.5302 65.8086 90.5302 65.8086L90.5007 65.9853C90.5007 65.9853 91.8112 65.9558 91.8112 67.7669C91.8112 67.7374 91.7964 70.4172 91.7964 70.9767Z" fill="white"/>
<path d="M35.0945 69.4601H32.8418V62.584H35.0945V69.4601ZM37.4209 62.9521C37.4209 61.8037 36.7436 61.0969 35.654 61.0969H32.135C31.0455 61.0969 30.3682 61.8037 30.3682 62.9521V69.1215C30.3682 70.2699 31.0455 70.9914 32.135 70.9767H35.654C36.7436 70.9767 37.4062 70.2552 37.4062 69.1215V62.9521H37.4209Z" fill="white"/>
<path d="M82.7999 64.1154H81.2687V62.6577H79.5018V69.7547H80.0024V70.9767H76.6159V69.7547H77.1165V62.6577H75.3496V64.1154H73.8184V61.0823H82.7999V64.1154Z" fill="white"/>
<path d="M43.487 69.4603H41.2343V62.5842H43.487V69.4603ZM45.8134 62.9523C45.8134 61.8038 45.1361 61.097 44.0613 61.097H40.5275C39.438 61.097 38.7754 61.8038 38.7754 62.9523V69.1216C38.7754 70.2701 39.4527 70.9915 40.5275 70.9768H44.0466C45.1361 70.9768 45.7987 70.2554 45.7987 69.1216V62.9523H45.8134Z" fill="white"/>
<path d="M98.0981 69.4455H95.8453V62.5694H98.0981V69.4455ZM100.424 62.9375C100.424 61.789 99.7471 61.0823 98.6723 61.0823H95.1533C94.0637 61.0823 93.4011 61.789 93.4011 62.9375V69.1068C93.4011 70.2553 94.0784 70.9768 95.168 70.962H98.687C99.7766 70.962 100.439 70.2553 100.439 69.1068L100.424 62.9375Z" fill="white"/>
<path d="M109.436 70.9767H102.25V69.5633H102.781V62.6577H102.25V61.0823H105.666V62.6577H105.122V69.5633H107.492V68.135H109.436V70.9767Z" fill="white"/>
<path d="M109.627 66.7804L108.596 66.0148L107.566 66.7804L107.963 65.5583L106.933 64.8074L108.199 64.8221L108.596 63.6L108.994 64.8221H110.26L109.23 65.5583L109.627 66.7804Z" fill="white"/>
</g>
</svg>
