<svg width="132" height="132" viewBox="0 0 132 132" fill="none" xmlns="http://www.w3.org/2000/svg">
<g opacity="0.24">
<path d="M85.3032 65.1167V59.0357C85.3032 58.9032 85.3327 58.8737 85.4652 58.8737H88.4689C88.5866 58.8737 88.6161 58.9032 88.6161 59.021V64.8222C88.6308 64.8516 88.6455 64.8811 88.6455 64.8958L88.7192 64.8516C88.7928 64.7633 88.8664 64.6602 88.94 64.5572C89.3523 64.0565 89.7498 63.5412 90.1768 63.0406C90.2357 62.967 90.2946 62.9375 90.3977 62.9375H93.6959C93.7253 62.9375 93.7547 62.9522 93.7695 62.9817C93.7842 62.9964 93.7547 63.0406 93.74 63.0553C93.5339 63.3056 93.3278 63.5559 93.1216 63.8062C92.5032 64.5572 91.8848 65.3081 91.2664 66.059C91.1192 66.2504 90.9719 66.4124 90.81 66.6038C90.7511 66.6774 90.7511 66.7069 90.81 66.7805C91.2517 67.2958 91.6934 67.8406 92.1351 68.3559C92.6799 69.0038 93.2247 69.6516 93.7548 70.2995C94.0051 70.6087 94.2701 70.9179 94.5351 71.2271C94.5498 71.2566 94.5646 71.286 94.5646 71.3007C94.5351 71.3154 94.5057 71.3302 94.4909 71.3302H90.8983C90.8394 71.3302 90.7805 71.3007 90.7363 71.2566C90.1916 70.6087 89.6468 69.9314 89.102 69.2835C88.9842 69.1363 88.8664 69.0038 88.7486 68.8565C88.7192 68.8271 88.675 68.8124 88.6603 68.7977C88.6455 68.8418 88.6308 68.8713 88.6308 68.9007V71.2271C88.6308 71.3302 88.6161 71.3449 88.4836 71.3449H85.4799C85.3032 71.3449 85.3032 71.3449 85.3032 71.1682C85.3032 69.151 85.3032 67.1338 85.3032 65.1167ZM70.6235 71.4774C70.2112 71.4921 69.7842 71.4332 69.3867 71.3007C68.9744 71.1829 68.5916 71.0062 68.2382 70.7707C67.8112 70.4909 67.4284 70.1523 67.1044 69.7547C66.8394 69.4308 66.6186 69.0774 66.4419 68.6946C66.1327 67.9584 66.0443 67.1927 66.1032 66.4124C66.1327 66.0148 66.221 65.632 66.3535 65.2639C66.5744 64.6308 66.9425 64.086 67.4136 63.6148C67.7965 63.232 68.2529 62.9228 68.7388 62.6872C68.9744 62.5842 69.2541 62.4958 69.5192 62.4369C70.0492 62.3191 70.5646 62.2749 71.0799 62.3191C71.4186 62.3486 71.7425 62.4075 72.0664 62.5105C72.3903 62.6136 72.7143 62.7461 73.0087 62.9228C73.421 63.1584 73.7744 63.4823 74.0983 63.8357C74.3928 64.1596 74.6284 64.4983 74.8198 64.8811C74.967 65.1903 75.0848 65.5142 75.1584 65.8529C75.2909 66.4565 75.2909 67.0602 75.2173 67.6786C75.1584 68.0615 75.0406 68.4443 74.8787 68.7977C74.4664 69.6958 73.7891 70.3437 72.994 70.8737C72.6259 71.0946 72.2284 71.2713 71.8161 71.3743C71.4186 71.4332 71.0357 71.4774 70.6235 71.4774ZM70.756 65.5289C70.4909 65.5289 70.2259 65.5878 70.0051 65.7204C69.6517 65.9265 69.4603 66.2357 69.3719 66.6332C69.313 66.913 69.3425 67.2075 69.4455 67.4872C69.5633 67.8406 69.8136 68.0467 70.1523 68.1204C70.4615 68.194 70.7854 68.194 71.1093 68.1351C71.5216 68.0615 71.8014 67.8112 71.9192 67.4136C72.037 67.0013 72.037 66.5743 71.8603 66.1768C71.7572 65.9265 71.5511 65.7351 71.3008 65.6762C71.1241 65.6026 70.9327 65.5731 70.756 65.5289ZM36.2284 67.0161C36.2431 67.3105 36.1695 67.7375 36.0517 68.1498C35.8897 68.6946 35.6394 69.1805 35.286 69.6369C34.9768 70.0492 34.594 70.4026 34.1817 70.7118C33.8873 70.9179 33.5781 71.0799 33.2541 71.2124C32.5916 71.4627 31.9143 71.551 31.237 71.4921C30.8394 71.4627 30.4419 71.3743 30.0738 71.2271C29.1756 70.8737 28.4983 70.2995 27.9093 69.5633C27.6738 69.2541 27.4824 68.9302 27.3498 68.5621C27.232 68.2381 27.129 67.9142 27.0995 67.5608C27.0554 67.2222 27.0259 66.8835 27.0554 66.5449C27.0995 66.0737 27.1879 65.6173 27.3793 65.1903C27.6738 64.4541 28.1744 63.8504 28.7633 63.3498C29.0873 63.0848 29.4406 62.8639 29.8382 62.7019C30.5744 62.378 31.3547 62.3044 32.1498 62.3633C32.5179 62.3927 32.8713 62.4664 33.21 62.5841C33.7547 62.7756 34.2554 63.0848 34.6824 63.4676C35.0946 63.821 35.448 64.2627 35.713 64.7338C35.8455 64.9842 35.9486 65.2345 36.0517 65.5142C36.1842 65.897 36.2284 66.3829 36.2284 67.0161ZM30.2799 66.8983C30.2799 66.9572 30.2946 67.0602 30.3093 67.1633C30.383 67.6492 30.6333 67.9731 31.1044 68.0909C31.5167 68.194 31.929 68.2087 32.3412 68.0467C32.6505 67.9289 32.8566 67.6934 32.9302 67.3842C33.0185 67.0602 33.0185 66.751 32.9597 66.4124C32.8419 65.9265 32.5032 65.6467 32.0615 65.5878C31.7081 65.5289 31.3695 65.5289 31.0161 65.6615C30.7805 65.7351 30.5891 65.897 30.4713 66.1032C30.3093 66.324 30.2799 66.5743 30.2799 66.8983ZM41.4995 71.4774C41.102 71.4921 40.6897 71.4185 40.2627 71.3007C39.8505 71.1829 39.4529 70.9915 39.0848 70.7559C38.4958 70.3731 37.9952 69.8725 37.5977 69.2835C37.3916 68.9596 37.2149 68.621 37.0971 68.2529C36.9057 67.6639 36.8615 67.0602 36.8909 66.4713C36.9204 66.059 37.0087 65.6762 37.1412 65.2786C37.3768 64.6455 37.7597 64.086 38.2455 63.6001C38.6284 63.2173 39.0554 62.8934 39.5707 62.6725C39.9388 62.5105 40.3363 62.4075 40.7339 62.3338C41.102 62.2749 41.4701 62.2602 41.8382 62.2897C42.0738 62.3044 42.3241 62.3633 42.5597 62.4075C42.7511 62.4516 42.9278 62.4958 43.1192 62.5694C43.34 62.6578 43.5903 62.7756 43.7965 62.9081C44.2971 63.1878 44.6946 63.5707 45.0627 64.0124C45.3572 64.3657 45.5928 64.7633 45.7547 65.1903C46.0198 65.8529 46.1228 66.5891 46.0492 67.2958C45.9903 67.7964 45.8873 68.2676 45.6811 68.724C45.3866 69.3424 44.9744 69.8872 44.4443 70.3437C44.0615 70.697 43.6198 70.9768 43.1486 71.1682C42.6333 71.3891 42.0738 71.4921 41.4995 71.4774ZM41.6026 68.1792C41.6615 68.1792 41.7057 68.1645 41.7793 68.1645C42.0149 68.1351 42.2505 68.0909 42.4419 67.9437C42.6627 67.767 42.7952 67.5314 42.8394 67.2516C42.8983 66.8983 42.8983 66.5743 42.7658 66.2357C42.6333 65.8676 42.3535 65.6615 41.9707 65.6026C41.6026 65.5289 41.2492 65.5289 40.8811 65.6615C40.513 65.7792 40.2922 66.0296 40.2038 66.4124C40.1302 66.7216 40.1302 67.0455 40.2038 67.34C40.2627 67.5608 40.3658 67.7523 40.5572 67.8995C40.8664 68.1351 41.2345 68.1645 41.6026 68.1792ZM98.275 71.4627C97.8627 71.4774 97.4505 71.4038 97.0382 71.3007C96.6259 71.1829 96.2284 70.9915 95.8603 70.7559C95.2713 70.3584 94.756 69.8578 94.3584 69.2688C94.1376 68.9596 93.9756 68.621 93.8725 68.2529C93.6222 67.4725 93.5928 66.6774 93.7548 65.8823C93.8578 65.3817 94.0492 64.9253 94.3143 64.4835C94.6087 63.9977 94.9621 63.5707 95.4038 63.2173C95.7425 62.9375 96.1106 62.7167 96.5229 62.5694C97.2002 62.3044 97.9216 62.2308 98.6431 62.2602C99.0259 62.2749 99.394 62.3338 99.7621 62.4369C100.292 62.5989 100.778 62.8492 101.205 63.2026C101.647 63.5707 102.03 64.0271 102.309 64.5424C102.457 64.8222 102.604 65.1167 102.722 65.4111C102.839 65.7204 102.913 66.0443 102.913 66.3829C102.913 66.486 102.884 66.5154 102.781 66.5302C102.471 66.6038 102.147 66.6627 101.838 66.7363C101.558 66.7952 101.293 66.8541 101.014 66.913C100.734 66.9866 100.454 67.0308 100.174 67.1044C99.8946 67.178 99.6296 67.2222 99.3498 67.2958C99.0554 67.3694 98.7462 67.4283 98.4517 67.5019C98.1866 67.5608 97.9216 67.6197 97.6419 67.6786L97.2443 67.7523C97.2149 67.7523 97.1854 67.7817 97.1854 67.7964C97.2001 67.8259 97.2149 67.87 97.2443 67.87C97.3768 67.9731 97.5241 68.0909 97.6566 68.194C97.9069 68.4001 98.1866 68.4001 98.4811 68.3854C98.8787 68.3412 99.1879 68.1498 99.4382 67.8259C99.556 67.6639 99.556 67.6639 99.7327 67.7817L100.734 68.4148C101.176 68.6946 101.632 68.9891 102.074 69.2688C102.221 69.3572 102.221 69.3572 102.103 69.4897C101.809 69.7989 101.544 70.1228 101.235 70.4173C101.058 70.594 100.866 70.7412 100.66 70.859C100.41 71.0062 100.145 71.1388 99.8652 71.2271C99.4382 71.3743 98.9965 71.448 98.54 71.4627C98.4517 71.4774 98.3633 71.4627 98.275 71.4627ZM98.3633 65.3081C98.2161 65.3375 98.0541 65.3375 97.9069 65.3817C97.5977 65.47 97.3327 65.6615 97.156 65.9265C97.0676 66.0443 96.994 66.1915 96.9351 66.324C96.9204 66.3535 96.9351 66.3976 96.9351 66.4124C96.9351 66.4271 96.9793 66.4271 96.994 66.4271C97.3032 66.3535 97.5977 66.2946 97.9069 66.221L98.7903 66.0148C98.9817 65.9707 99.1584 65.9412 99.3351 65.8823C99.4087 65.8529 99.4235 65.8234 99.3793 65.7792C99.0848 65.4995 98.7609 65.3228 98.3633 65.3081ZM21.2247 65.7645C21.2247 63.9829 21.21 62.2308 21.2247 60.4492C21.2247 59.9338 21.475 59.5216 21.902 59.2271C22.2259 59.0062 22.5793 58.9179 22.9768 58.9179H27.4676C27.7179 58.9032 27.6885 58.9326 27.6885 59.1535V61.6565C27.6885 61.8038 27.6738 61.8332 27.5118 61.8332H25.3179C25.1707 61.8332 25.0235 61.848 24.9057 61.9068C24.6406 61.9952 24.5376 62.2455 24.5376 62.4958C24.5228 62.8934 24.5228 63.2909 24.5228 63.6884V63.9093C24.5228 63.9829 24.567 64.0124 24.6259 64.0124H26.0689C26.2603 64.0124 26.2603 64.0124 26.2603 64.2038V66.751C26.2603 66.913 26.2455 66.9277 26.0836 66.9277H24.6259C24.5228 66.9277 24.5081 66.9424 24.5081 67.0455V71.2418C24.5081 71.3154 24.4787 71.3449 24.4051 71.3449H21.2983C21.2247 71.3449 21.21 71.3007 21.21 71.2418C21.2247 69.4013 21.2247 67.5903 21.2247 65.7645ZM47.9928 67.7964V65.6909C47.9928 65.5731 47.9633 65.5437 47.8455 65.5437H46.7707C46.6676 65.5437 46.6529 65.5289 46.6529 65.4259V62.7461C46.6529 62.6578 46.6824 62.6283 46.7707 62.6283H47.8308C47.9633 62.6283 47.9781 62.5989 47.9781 62.4811V59.816C47.9781 59.6983 47.9928 59.6835 48.1106 59.6835H51.0848C51.2173 59.6835 51.232 59.6983 51.232 59.8308C51.232 60.3314 51.2468 60.832 51.2468 61.3326C51.2468 61.7154 51.2468 62.0983 51.2615 62.4811C51.2615 62.6283 51.2909 62.643 51.4382 62.643H52.3952C52.4983 62.643 52.5278 62.6725 52.5278 62.7756V65.4259C52.5278 65.5289 52.4983 65.5584 52.3952 65.5584H51.4235C51.2909 65.5584 51.2762 65.5878 51.2762 65.7056V67.6345C51.2762 67.7964 51.2762 67.9731 51.3646 68.1351C51.4529 68.3118 51.5854 68.4148 51.7916 68.4443C51.8652 68.459 51.9682 68.459 52.0419 68.459H52.9547C53.102 68.459 53.1167 68.4737 53.1167 68.621V71.2124C53.1167 71.3302 53.102 71.3596 52.9842 71.3596H49.6713C49.259 71.3596 48.8468 71.2271 48.5376 70.9621C48.1842 70.6823 47.9781 70.2553 47.9928 69.7989C47.9928 69.1216 47.9928 68.459 47.9928 67.7964ZM80.7093 71.4627C80.2676 71.4921 79.8406 71.4038 79.4284 71.3007C79.0161 71.1829 78.6186 70.9915 78.2505 70.7559C77.7057 70.3878 77.2198 69.9314 76.837 69.4013C76.5866 69.048 76.3952 68.6651 76.2774 68.2529C76.086 67.6492 76.0419 67.0308 76.086 66.4271C76.1449 65.794 76.3069 65.205 76.6455 64.6455C76.9989 64.0418 77.4701 63.5265 78.0443 63.1142C78.383 62.8639 78.7511 62.6725 79.1486 62.54C79.8701 62.3044 80.6505 62.2308 81.4014 62.3486C81.6811 62.3927 81.9609 62.4516 82.2259 62.54C82.6087 62.6578 82.9621 62.8492 83.3008 63.07C83.7719 63.4087 84.1842 63.8357 84.5228 64.3216C84.567 64.3805 84.567 64.4099 84.4934 64.4541C83.9044 64.8222 83.3008 65.205 82.7118 65.5731C82.4615 65.7351 82.1965 65.9118 81.9314 66.059C81.7989 66.1326 81.7989 66.1326 81.6959 66.0148C81.5928 65.897 81.475 65.794 81.3425 65.6909C81.1511 65.5437 80.9155 65.5142 80.6799 65.5289C80.459 65.5437 80.2676 65.5437 80.0615 65.6173C79.767 65.7203 79.5462 65.9118 79.4284 66.2062C79.2811 66.5596 79.2811 66.9424 79.3695 67.3105C79.4431 67.6639 79.664 67.9142 80.0173 68.032C80.3854 68.1645 80.7535 68.194 81.1363 68.0909C81.3572 68.0173 81.5339 67.87 81.6811 67.6934C81.6959 67.6639 81.7253 67.6492 81.74 67.6197C81.7695 67.5756 81.8136 67.5756 81.8431 67.605C82.5204 68.0467 83.2271 68.4885 83.9044 68.9302L84.4639 69.2835C84.5376 69.3277 84.5376 69.3572 84.4934 69.4161C84.0811 70.005 83.5952 70.4909 82.9768 70.8737C82.5204 71.1388 82.0198 71.3302 81.5044 71.3891C81.2541 71.4332 80.9744 71.448 80.7241 71.4627C80.7094 71.4921 80.7093 71.4774 80.7093 71.4627ZM59.2713 64.4688V59.0504C59.2713 58.9032 59.286 58.8884 59.4333 58.8884H62.3781C62.5106 58.8884 62.5253 58.9179 62.5253 59.0504V67.5608C62.5253 67.6786 62.54 67.7964 62.5547 67.9142C62.5989 68.1645 62.8051 68.3854 63.0701 68.4148C63.1732 68.4296 63.2909 68.4296 63.4087 68.4296H65.5879C65.6909 68.4296 65.7057 68.459 65.7057 68.5768V71.2124C65.7057 71.286 65.6762 71.3302 65.5879 71.3302H60.7584C60.4492 71.3302 60.14 71.2566 59.875 71.1093C59.6541 70.9768 59.4774 70.7707 59.3891 70.5204C59.286 70.2406 59.2566 69.9608 59.2566 69.6664C59.2713 67.9289 59.2713 66.1915 59.2713 64.4688ZM103.826 67.5167V64.1154C103.826 63.9093 103.841 63.6737 103.885 63.4676C103.988 62.9817 104.253 62.6578 104.739 62.5105C104.974 62.4369 105.225 62.4222 105.46 62.4222H109.392C109.524 62.4222 109.554 62.4516 109.554 62.5841V65.1756C109.554 65.3228 109.539 65.3375 109.392 65.3375C108.891 65.3375 108.42 65.3228 107.919 65.3375C107.757 65.3375 107.595 65.367 107.448 65.4111C107.227 65.4848 107.139 65.6909 107.109 65.9118C107.095 65.9854 107.109 66.0737 107.109 66.1473V71.2124C107.109 71.286 107.08 71.3154 107.006 71.3154H103.973C103.87 71.3154 103.841 71.286 103.841 71.1977C103.811 69.9756 103.811 68.7388 103.826 67.5167Z" fill="white"/>
</g>
</svg>
