<svg width="132" height="132" viewBox="0 0 132 132" fill="none" xmlns="http://www.w3.org/2000/svg">
<g opacity="0.24">
<g clip-path="url(#clip0)">
<path d="M42.2327 66.0257C40.1686 68.6422 38.1774 71.1737 36.1194 73.7842C34.0735 71.1919 32.0641 68.6422 30 66.0257C32.0337 63.4638 34.0492 60.9201 36.1194 58.3096C38.1713 60.9079 40.1747 63.4273 42.2327 66.0257ZM36.1194 63.4213C35.4091 64.3198 34.7352 65.1636 34.0553 66.0257C34.7656 66.9181 35.4212 67.7376 36.1194 68.6179C36.8479 67.6951 37.5035 66.8756 38.1713 66.0257C37.5035 65.1757 36.8661 64.3683 36.1194 63.4213Z" fill="white"/>
<path d="M80.6306 58H77.1399V73.7052H80.6306V58Z" fill="white"/>
<path d="M98.5032 58H91.6189H91.1879H88.1282V73.7052H91.6189V68.029H98.5032C100.434 68.029 101.994 66.4627 101.994 64.5383V61.4907C102 59.5663 100.434 58 98.5032 58ZM98.5032 64.5322H91.6189V61.4907H98.5032V64.5322Z" fill="white"/>
<path d="M66.0728 58V64.168H58.5935V58H55.1028V73.7052H58.5935V67.6587H66.0728V73.7052H69.5635V58H66.0728Z" fill="white"/>
</g>
</g>
<defs>
<clipPath id="clip0">
<rect width="72" height="15.7841" fill="white" transform="translate(30 58)"/>
</clipPath>
</defs>
</svg>
