<svg width="132" height="132" viewBox="0 0 132 132" fill="none" xmlns="http://www.w3.org/2000/svg">
<g opacity="0.24">
<path d="M78.459 65.5694C79.7556 58.0239 71.3089 59.1328 71.3089 59.1328L69.1951 71.9774C69.1951 71.9774 77.1602 73.2231 78.459 65.5694ZM84.0939 65.6709C83.1242 71.5332 78.4149 77.3669 70.887 77.3669H62.9042L66.7785 53.8976H74.7548C82.2605 53.8976 85.0547 59.7622 84.0939 65.6709ZM65.6918 53.9484C61.7556 80.4438 48.7807 78.0163 48.7807 78.0163L49.514 72.4102C58.5571 72.5204 60.0945 53.9484 60.0945 53.9484H65.6918ZM90.1705 66C90.1705 52.6519 79.347 41.8283 65.9988 41.8283C52.6484 41.8283 41.8293 52.6519 41.8293 66C41.8293 79.3483 52.6484 90.1717 65.9988 90.1717C79.347 90.1717 90.1705 79.3483 90.1705 66Z" fill="white"/>
</g>
</svg>
