<svg width="132" height="132" viewBox="0 0 132 132" fill="none" xmlns="http://www.w3.org/2000/svg">
<g opacity="0.24">
<g clip-path="url(#clip0)">
<path d="M106 49C106 60.3198 106 71.607 106 82.9486C79.337 82.9486 52.6848 82.9486 26 82.9486C26 71.6288 26 60.3307 26 49C52.663 49 79.3152 49 106 49ZM87.7426 63.3863C87.7426 63.0492 87.7426 62.7774 87.7426 62.5164C87.7426 60.0589 87.7317 57.5905 87.7534 55.1329C87.7534 54.698 87.6447 54.524 87.1771 54.5349C85.9483 54.5675 84.7196 54.5566 83.4799 54.5349C83.0232 54.524 82.9036 54.6654 82.9036 55.1221C82.9145 62.3641 82.9145 69.6062 82.9145 76.8483C82.9145 77.044 82.9362 77.2289 82.9362 77.4246C84.5565 77.4246 86.1115 77.4246 87.7317 77.4246C87.7317 77.1854 87.7317 76.9788 87.7317 76.7613C87.7317 73.9884 87.7426 71.2156 87.7208 68.4536C87.7208 67.9643 87.8622 67.8446 88.3406 67.8555C90.548 67.8773 92.7555 67.8773 94.9629 67.8555C95.4522 67.8555 95.6153 67.9751 95.6153 68.4862C95.5936 71.2591 95.6045 74.0319 95.6045 76.7939C95.6045 77.0005 95.6045 77.2071 95.6045 77.4138C97.2791 77.4138 98.8667 77.4138 100.443 77.4138C100.443 69.7802 100.443 62.1902 100.443 54.6001C98.8232 54.6001 97.2355 54.6001 95.6045 54.6001C95.6045 57.5578 95.6045 60.4612 95.6045 63.3972C92.9838 63.3863 90.4067 63.3863 87.7426 63.3863ZM39.1467 67.0943C39.2663 67.3009 39.3424 67.4097 39.3968 67.5184C41.0387 70.661 42.6807 73.7927 44.3009 76.9353C44.4858 77.305 44.6815 77.4681 45.1165 77.4573C46.4322 77.4246 47.7589 77.4464 49.0855 77.4464C49.3465 77.4464 49.6074 77.4464 49.9228 77.4464C49.8575 77.2506 49.8358 77.1528 49.7814 77.0549C47.4435 72.6401 45.1056 68.2144 42.746 63.7995C42.5285 63.3972 42.5285 63.1144 42.8221 62.7339C44.5945 60.4177 46.3561 58.0798 48.1286 55.7419C48.4004 55.383 48.6614 55.0133 48.9985 54.5457C47.1282 54.5457 45.4101 54.5349 43.7029 54.5566C43.5615 54.5566 43.3658 54.698 43.2679 54.8176C41.5716 57.025 39.897 59.2433 38.2115 61.4616C37.6461 62.201 37.0915 62.9405 36.526 63.6799C36.4717 63.6581 36.4282 63.6364 36.3738 63.6255C36.3738 63.4407 36.3738 63.2449 36.3738 63.0601C36.3738 60.4394 36.3629 57.8079 36.3847 55.1873C36.3847 54.7088 36.2868 54.5131 35.7648 54.5349C34.5905 54.5784 33.4161 54.5675 32.2308 54.5349C31.7197 54.524 31.5457 54.6545 31.5457 55.1982C31.5675 62.4076 31.5566 69.6062 31.5566 76.8157C31.5566 77.0114 31.5784 77.2071 31.5892 77.4138C33.1986 77.4138 34.7536 77.4138 36.3738 77.4138C36.3738 77.1745 36.3738 76.9788 36.3738 76.7831C36.3738 75.1846 36.4173 73.597 36.352 72.0094C36.3194 71.0633 36.4825 70.2695 37.1676 69.5519C37.8635 68.8015 38.4616 67.9534 39.1467 67.0943ZM73.2366 77.4355C73.2366 71.1503 73.2366 64.9195 73.2366 58.6344C75.194 58.6344 77.086 58.6344 78.9672 58.6344C78.9672 57.2425 78.9672 55.9159 78.9672 54.6001C73.4867 54.6001 68.0497 54.6001 62.6345 54.6001C62.6345 55.9811 62.6345 57.3077 62.6345 58.6887C64.5592 58.6887 66.4295 58.6887 68.3868 58.6887C68.3868 64.9739 68.3868 71.1938 68.3868 77.4464C70.0179 77.4355 71.5729 77.4355 73.2366 77.4355ZM58.7525 77.4246C58.7634 77.2724 58.7851 77.1637 58.7851 77.0658C58.7851 69.715 58.7851 62.375 58.796 55.0242C58.796 54.6436 58.6764 54.524 58.2958 54.5349C57.067 54.5566 55.8382 54.5675 54.6095 54.5349C54.0984 54.524 53.9788 54.7088 53.9788 55.1873C53.9897 62.3859 53.9897 69.5845 53.9897 76.7939C53.9897 77.0005 54.0114 77.2072 54.0223 77.4355C55.6316 77.4246 57.1649 77.4246 58.7525 77.4246Z" fill="white"/>
</g>
</g>
<defs>
<clipPath id="clip0">
<rect width="80" height="33.9486" fill="white" transform="translate(26 49)"/>
</clipPath>
</defs>
</svg>
