<svg width="132" height="132" viewBox="0 0 132 132" fill="none" xmlns="http://www.w3.org/2000/svg">
<g opacity="0.24">
<g clip-path="url(#clip0)">
<path fill-rule="evenodd" clip-rule="evenodd" d="M94.7372 71.1075C92.8459 71.1075 91.0801 71.1075 89.2253 71.1075C88.8331 68.7081 89.1766 66.586 91.2138 65.0073C91.9882 64.407 92.8251 63.8852 93.5852 63.2683C94.7528 62.3196 95.1758 61.045 94.6893 59.9632C94.1731 58.8154 93.1814 58.5234 92.0235 58.6378C90.6855 58.7705 89.7594 59.6278 89.4745 61.0009C89.3936 61.3915 89.3857 61.7972 89.3252 62.3824C88.3366 62.3824 87.327 62.3824 86.3171 62.3824C85.3021 62.3824 84.2872 62.3824 83.2852 62.3824C82.9737 57.7532 86.2334 54.0047 90.8909 53.5967C93.1228 53.4012 95.3082 53.5773 97.4343 54.5101C102.303 56.6461 103.017 63.7028 98.4702 66.3546C98.047 66.6014 97.6603 66.9094 97.2394 67.1599C95.7553 68.0428 94.5574 69.1127 94.7372 71.1075Z" fill="white"/>
<path fill-rule="evenodd" clip-rule="evenodd" d="M71.3549 67.4401C74.3832 67.4401 77.3014 67.4401 80.2297 67.4401C79.8468 64.8858 78.1875 63.3482 75.8834 63.3474C73.459 63.3466 71.7479 64.8625 71.3549 67.4401ZM83.8555 73.132C83.2893 76.3182 80.4411 78.6444 76.768 78.9204C71.6032 79.3084 67.8445 76.1462 67.4618 70.9783C67.3647 69.6643 67.4084 68.2817 67.7089 67.0064C68.7624 62.5359 72.4303 59.8612 76.6855 60.3004C80.9102 60.7362 84.0409 64.1435 84.3033 68.6089C84.3391 69.2188 84.3082 69.8327 84.3082 70.5723C79.9152 70.5723 75.6541 70.5723 71.4174 70.5723C71.0631 72.5748 72.0894 74.5971 73.7914 75.427C75.6482 76.3323 78.2826 75.907 79.4799 74.5082C80.9104 72.8373 81.5635 72.632 83.8555 73.132Z" fill="white"/>
<path fill-rule="evenodd" clip-rule="evenodd" d="M46.4721 65.8515C45.2847 65.8515 44.1773 65.8872 43.0754 65.826C42.8107 65.8111 42.4789 65.5281 42.3224 65.278C41.1811 63.4533 38.0501 62.8284 36.3006 64.1062C35.3508 64.8 35.3006 66.0174 36.3462 66.6645C37.1572 67.1664 38.1292 67.4388 39.0596 67.7108C40.6797 68.184 42.3546 68.4854 43.9481 69.0298C45.7694 69.6524 46.9388 70.9426 47.0801 72.9549C47.2235 74.9995 46.4653 76.6861 44.6809 77.6916C41.3073 79.5925 37.7804 79.6604 34.3064 78.0012C32.3871 77.0849 31.488 75.3702 31.3738 73.1257C32.6264 73.1257 33.8433 73.1257 35.0714 73.1257C36.0372 76.1839 38.5733 76.6364 41.8238 75.6118C42.398 75.4309 43.1001 74.5752 43.1216 74.0075C43.146 73.3654 42.626 72.3842 42.0658 72.1042C40.8952 71.5187 39.5425 71.2986 38.2654 70.9261C36.9868 70.5527 35.6654 70.2827 34.4415 69.7765C32.6129 69.0201 31.7358 67.5165 31.7362 65.5496C31.7366 63.6748 32.6382 62.2909 34.3183 61.5126C37.2497 60.1546 40.2644 60.0233 43.2486 61.3097C45.1451 62.1272 46.2001 63.6502 46.4721 65.8515Z" fill="white"/>
<path fill-rule="evenodd" clip-rule="evenodd" d="M52.8214 60.9684C57.8488 60.9684 62.7364 60.9684 67.6507 60.9684C67.9499 62.5437 67.7503 63.796 66.618 65.0473C63.6064 68.3756 60.7577 71.8513 57.632 75.5168C61.163 75.5168 64.4154 75.5168 67.7375 75.5168C67.7375 76.6171 67.7375 77.5311 67.7375 78.5296C62.7459 78.5296 57.8226 78.5296 52.841 78.5296C52.6403 77.049 52.6786 75.8021 53.7625 74.5589C56.7101 71.1781 59.5006 67.6605 62.5397 63.9709C59.1484 63.9709 56.023 63.9709 52.8214 63.9709C52.8214 62.899 52.8214 61.9829 52.8214 60.9684Z" fill="white"/>
<path fill-rule="evenodd" clip-rule="evenodd" d="M48.0242 78.5173C48.0242 72.6699 48.0242 66.8968 48.0242 61.0087C49.2366 61.0087 50.45 61.0087 51.7582 61.0087C51.7582 66.8257 51.7582 72.6229 51.7582 78.5173C50.5109 78.5173 49.2963 78.5173 48.0242 78.5173Z" fill="white"/>
<path fill-rule="evenodd" clip-rule="evenodd" d="M94.624 78.5654C92.7894 78.5654 91.0715 78.5654 89.2371 78.5654C89.2371 76.7833 89.2371 75.0342 89.2371 73.1638C90.9665 73.1638 92.7533 73.1638 94.624 73.1638C94.624 74.9168 94.624 76.6696 94.624 78.5654Z" fill="white"/>
<path fill-rule="evenodd" clip-rule="evenodd" d="M51.7543 59.3062C50.4621 59.3062 49.2791 59.3062 48.0327 59.3062C48.0327 58.1357 48.0327 57.0378 48.0327 55.8234C49.225 55.8234 50.4405 55.8234 51.7543 55.8234C51.7543 56.9309 51.7543 58.0603 51.7543 59.3062Z" fill="white"/>
</g>
</g>
<defs>
<clipPath id="clip0">
<rect width="72" height="26.5049" fill="white" transform="translate(30 53)"/>
</clipPath>
</defs>
</svg>
