<svg width="132" height="132" viewBox="0 0 132 132" fill="none" xmlns="http://www.w3.org/2000/svg">
<path d="M38.457 57.724H42.448L40.459 52.888L38.457 57.724ZM37.092 61H36L40.004 51.796H40.914L44.918 61H43.826L42.812 58.582H38.106L37.092 61Z" fill="url(#paint0_radial)"/>
<path d="M46.6671 54.916C46.6844 55.0807 46.6931 55.2453 46.6931 55.41C46.7018 55.566 46.7061 55.7263 46.7061 55.891H46.7321C46.8274 55.7263 46.9488 55.5747 47.0961 55.436C47.2434 55.2973 47.4081 55.1803 47.5901 55.085C47.7721 54.981 47.9628 54.903 48.1621 54.851C48.3701 54.7903 48.5738 54.76 48.7731 54.76C49.5531 54.76 50.1294 54.968 50.5021 55.384C50.8748 55.7913 51.0611 56.3763 51.0611 57.139V61H50.2031V57.633C50.2031 56.957 50.0861 56.4413 49.8521 56.086C49.6181 55.722 49.1848 55.54 48.5521 55.54C48.5088 55.54 48.3874 55.5573 48.1881 55.592C47.9888 55.6267 47.7764 55.722 47.5511 55.878C47.3344 56.034 47.1394 56.268 46.9661 56.58C46.7928 56.892 46.7061 57.3253 46.7061 57.88V61H45.8481V56.255C45.8481 56.0903 45.8394 55.8823 45.8221 55.631C45.8134 55.3797 45.8004 55.1413 45.7831 54.916H46.6671Z" fill="url(#paint1_radial)"/>
<path d="M53.5917 57.958C53.5917 58.296 53.6437 58.6123 53.7477 58.907C53.8604 59.2017 54.0164 59.4573 54.2157 59.674C54.4151 59.8907 54.6534 60.064 54.9307 60.194C55.2167 60.3153 55.5374 60.376 55.8927 60.376C56.2394 60.376 56.5601 60.3153 56.8547 60.194C57.1581 60.064 57.4181 59.8907 57.6347 59.674C57.8514 59.4573 58.0204 59.2017 58.1417 58.907C58.2631 58.6123 58.3237 58.296 58.3237 57.958C58.3237 57.62 58.2631 57.3037 58.1417 57.009C58.0204 56.7143 57.8514 56.4587 57.6347 56.242C57.4181 56.0253 57.1581 55.8563 56.8547 55.735C56.5601 55.605 56.2394 55.54 55.8927 55.54C55.5374 55.54 55.2167 55.605 54.9307 55.735C54.6534 55.8563 54.4151 56.0253 54.2157 56.242C54.0164 56.4587 53.8604 56.7143 53.7477 57.009C53.6437 57.3037 53.5917 57.62 53.5917 57.958ZM59.1427 61H58.2847V59.986H58.2587C58.1201 60.194 57.9554 60.3717 57.7647 60.519C57.5741 60.6663 57.3747 60.7877 57.1667 60.883C56.9587 60.9783 56.7421 61.0477 56.5167 61.091C56.3001 61.1343 56.0921 61.156 55.8927 61.156C55.4161 61.156 54.9784 61.078 54.5797 60.922C54.1897 60.7573 53.8517 60.532 53.5657 60.246C53.2797 59.96 53.0544 59.622 52.8897 59.232C52.7337 58.842 52.6557 58.4173 52.6557 57.958C52.6557 57.4987 52.7337 57.074 52.8897 56.684C53.0544 56.294 53.2797 55.956 53.5657 55.67C53.8517 55.384 54.1897 55.163 54.5797 55.007C54.9784 54.8423 55.4161 54.76 55.8927 54.76C56.0921 54.76 56.3001 54.7817 56.5167 54.825C56.7421 54.8683 56.9587 54.9377 57.1667 55.033C57.3747 55.1283 57.5741 55.2497 57.7647 55.397C57.9554 55.5443 58.1201 55.722 58.2587 55.93H58.2847V51.172H59.1427V61Z" fill="url(#paint2_radial)"/>
<path d="M64.6372 56.268C64.6372 56.0427 64.6285 55.8173 64.6112 55.592C64.6025 55.3667 64.5895 55.1413 64.5722 54.916H65.4952V55.839H65.5212C65.7292 55.4837 66.0152 55.215 66.3792 55.033C66.7518 54.851 67.1202 54.76 67.4842 54.76C67.6488 54.76 67.8222 54.7773 68.0042 54.812C68.1948 54.8467 68.3768 54.9117 68.5502 55.007C68.7235 55.0937 68.8838 55.2193 69.0312 55.384C69.1872 55.5487 69.3172 55.761 69.4212 56.021C69.5945 55.631 69.8675 55.3233 70.2402 55.098C70.6215 54.8727 71.0158 54.76 71.4232 54.76C72.2032 54.76 72.7795 54.968 73.1522 55.384C73.5248 55.7913 73.7112 56.3763 73.7112 57.139V61H72.8532V57.451C72.8532 56.8357 72.7448 56.3633 72.5282 56.034C72.3115 55.7047 71.9085 55.54 71.3192 55.54C70.9985 55.54 70.7298 55.605 70.5132 55.735C70.2965 55.8563 70.1188 56.021 69.9802 56.229C69.8502 56.437 69.7548 56.6753 69.6942 56.944C69.6335 57.204 69.6032 57.477 69.6032 57.763V61H68.7452V57.451C68.7452 56.8357 68.6368 56.3633 68.4202 56.034C68.2035 55.7047 67.8005 55.54 67.2112 55.54C67.1592 55.54 67.0378 55.5573 66.8472 55.592C66.6652 55.6267 66.4745 55.722 66.2752 55.878C66.0758 56.034 65.8938 56.268 65.7292 56.58C65.5732 56.892 65.4952 57.3253 65.4952 57.88V61H64.6372V56.268Z" fill="url(#paint3_radial)"/>
<path d="M80.1015 61C80.0842 60.8353 80.0712 60.675 80.0625 60.519C80.0625 60.3543 80.0625 60.1897 80.0625 60.025H80.0365C79.9412 60.1897 79.8198 60.3413 79.6725 60.48C79.5252 60.6187 79.3605 60.74 79.1785 60.844C78.9965 60.9393 78.8015 61.013 78.5935 61.065C78.3941 61.1257 78.1948 61.156 77.9955 61.156C77.2155 61.156 76.6392 60.9523 76.2665 60.545C75.8938 60.129 75.7075 59.5397 75.7075 58.777V54.916H76.5655V58.283C76.5655 58.621 76.5915 58.92 76.6435 59.18C76.6955 59.44 76.7822 59.661 76.9035 59.843C77.0335 60.0163 77.2025 60.1507 77.4105 60.246C77.6272 60.3327 77.8958 60.376 78.2165 60.376C78.2598 60.376 78.3812 60.3587 78.5805 60.324C78.7798 60.2893 78.9878 60.194 79.2045 60.038C79.4298 59.882 79.6292 59.648 79.8025 59.336C79.9758 59.024 80.0625 58.5907 80.0625 58.036V54.916H80.9205V59.661C80.9205 59.8257 80.9248 60.0337 80.9335 60.285C80.9508 60.5363 80.9682 60.7747 80.9855 61H80.1015Z" fill="url(#paint4_radial)"/>
<path d="M87.3641 56.346C87.2168 56.1207 87.0088 55.93 86.7401 55.774C86.4801 55.618 86.1811 55.54 85.8431 55.54C85.4878 55.5313 85.1671 55.5877 84.8811 55.709C84.6038 55.8303 84.3655 55.9993 84.1661 56.216C83.9668 56.4327 83.8151 56.6927 83.7111 56.996C83.6071 57.2907 83.5551 57.6113 83.5551 57.958C83.5551 58.3047 83.6071 58.6297 83.7111 58.933C83.8151 59.2277 83.9668 59.4833 84.1661 59.7C84.3655 59.9167 84.6038 60.0857 84.8811 60.207C85.1671 60.3283 85.4878 60.3847 85.8431 60.376C86.1811 60.376 86.4801 60.298 86.7401 60.142C87.0088 59.986 87.2168 59.7953 87.3641 59.57L88.0661 60.103C87.7628 60.4583 87.4204 60.7227 87.0391 60.896C86.6578 61.0607 86.2591 61.1473 85.8431 61.156C85.3491 61.1647 84.9028 61.091 84.5041 60.935C84.1054 60.7703 83.7631 60.545 83.4771 60.259C83.1998 59.973 82.9875 59.635 82.8401 59.245C82.6928 58.8463 82.6191 58.4173 82.6191 57.958C82.6191 57.4987 82.6928 57.074 82.8401 56.684C82.9875 56.2853 83.1998 55.943 83.4771 55.657C83.7631 55.371 84.1054 55.15 84.5041 54.994C84.9028 54.8293 85.3491 54.7513 85.8431 54.76C86.2591 54.7687 86.6578 54.8597 87.0391 55.033C87.4204 55.1977 87.7628 55.4577 88.0661 55.813L87.3641 56.346Z" fill="url(#paint5_radial)"/>
<path d="M89.2026 51.172H90.0606V55.891H90.0866C90.1819 55.7263 90.3033 55.5747 90.4506 55.436C90.5979 55.2973 90.7626 55.1803 90.9446 55.085C91.1266 54.981 91.3173 54.903 91.5166 54.851C91.7246 54.7903 91.9283 54.76 92.1276 54.76C92.9076 54.76 93.4839 54.968 93.8566 55.384C94.2293 55.7913 94.4156 56.3763 94.4156 57.139V61H93.5576V57.633C93.5576 56.957 93.4406 56.4413 93.2066 56.086C92.9726 55.722 92.5393 55.54 91.9066 55.54C91.8633 55.54 91.7419 55.5573 91.5426 55.592C91.3433 55.6267 91.1309 55.722 90.9056 55.878C90.6889 56.034 90.4939 56.268 90.3206 56.58C90.1473 56.892 90.0606 57.3253 90.0606 57.88V61H89.2026V51.172Z" fill="url(#paint6_radial)"/>
<path d="M36.936 74.268C36.936 74.0427 36.9273 73.8173 36.91 73.592C36.9013 73.3667 36.8883 73.1413 36.871 72.916H37.794V73.839H37.82C38.028 73.4837 38.314 73.215 38.678 73.033C39.0507 72.851 39.419 72.76 39.783 72.76C39.9477 72.76 40.121 72.7773 40.303 72.812C40.4937 72.8467 40.6757 72.9117 40.849 73.007C41.0223 73.0937 41.1827 73.2193 41.33 73.384C41.486 73.5487 41.616 73.761 41.72 74.021C41.8933 73.631 42.1663 73.3233 42.539 73.098C42.9203 72.8727 43.3147 72.76 43.722 72.76C44.502 72.76 45.0783 72.968 45.451 73.384C45.8237 73.7913 46.01 74.3763 46.01 75.139V79H45.152V75.451C45.152 74.8357 45.0437 74.3633 44.827 74.034C44.6103 73.7047 44.2073 73.54 43.618 73.54C43.2973 73.54 43.0287 73.605 42.812 73.735C42.5953 73.8563 42.4177 74.021 42.279 74.229C42.149 74.437 42.0537 74.6753 41.993 74.944C41.9323 75.204 41.902 75.477 41.902 75.763V79H41.044V75.451C41.044 74.8357 40.9357 74.3633 40.719 74.034C40.5023 73.7047 40.0993 73.54 39.51 73.54C39.458 73.54 39.3367 73.5573 39.146 73.592C38.964 73.6267 38.7733 73.722 38.574 73.878C38.3747 74.034 38.1927 74.268 38.028 74.58C37.872 74.892 37.794 75.3253 37.794 75.88V79H36.936V74.268Z" fill="url(#paint7_radial)"/>
<path d="M53.2193 75.958C53.2193 75.62 53.163 75.3037 53.0503 75.009C52.9463 74.7143 52.7946 74.4587 52.5953 74.242C52.396 74.0253 52.1533 73.8563 51.8673 73.735C51.59 73.605 51.2736 73.54 50.9183 73.54C50.563 73.54 50.2423 73.605 49.9563 73.735C49.679 73.8563 49.4406 74.0253 49.2413 74.242C49.0506 74.4587 48.899 74.7143 48.7863 75.009C48.6823 75.3037 48.6303 75.62 48.6303 75.958C48.6303 76.296 48.6823 76.6123 48.7863 76.907C48.899 77.2017 49.0506 77.4573 49.2413 77.674C49.4406 77.8907 49.679 78.064 49.9563 78.194C50.2423 78.3153 50.563 78.376 50.9183 78.376C51.2736 78.376 51.59 78.3153 51.8673 78.194C52.1533 78.064 52.396 77.8907 52.5953 77.674C52.7946 77.4573 52.9463 77.2017 53.0503 76.907C53.163 76.6123 53.2193 76.296 53.2193 75.958ZM54.1553 75.958C54.1553 76.4173 54.073 76.842 53.9083 77.232C53.7523 77.622 53.5313 77.96 53.2453 78.246C52.9593 78.532 52.617 78.7573 52.2183 78.922C51.8283 79.078 51.395 79.156 50.9183 79.156C50.4503 79.156 50.017 79.078 49.6183 78.922C49.2283 78.7573 48.8903 78.532 48.6043 78.246C48.3183 77.96 48.093 77.622 47.9283 77.232C47.7723 76.842 47.6943 76.4173 47.6943 75.958C47.6943 75.4987 47.7723 75.074 47.9283 74.684C48.093 74.294 48.3183 73.956 48.6043 73.67C48.8903 73.384 49.2283 73.163 49.6183 73.007C50.017 72.8423 50.4503 72.76 50.9183 72.76C51.395 72.76 51.8283 72.8423 52.2183 73.007C52.617 73.163 52.9593 73.384 53.2453 73.67C53.5313 73.956 53.7523 74.294 53.9083 74.684C54.073 75.074 54.1553 75.4987 54.1553 75.958Z" fill="url(#paint8_radial)"/>
<path d="M55.8034 74.814C55.8034 74.5453 55.7947 74.2723 55.7774 73.995C55.7687 73.7177 55.76 73.358 55.7514 72.916H56.5964V74.047H56.6224C56.683 73.8823 56.7697 73.7263 56.8824 73.579C56.995 73.423 57.1294 73.2843 57.2854 73.163C57.45 73.0417 57.6364 72.9463 57.8444 72.877C58.061 72.799 58.3037 72.76 58.5724 72.76C58.815 72.76 59.0274 72.786 59.2094 72.838L59.0404 73.683C58.9277 73.6397 58.763 73.618 58.5464 73.618C58.217 73.618 57.9354 73.683 57.7014 73.813C57.4674 73.9343 57.2724 74.0947 57.1164 74.294C56.9604 74.4847 56.8434 74.6927 56.7654 74.918C56.696 75.1433 56.6614 75.36 56.6614 75.568V79H55.8034V74.814Z" fill="url(#paint9_radial)"/>
<path d="M64.5323 75.49C64.5323 74.9093 64.3589 74.4413 64.0123 74.086C63.6656 73.722 63.1803 73.54 62.5563 73.54C62.2789 73.54 62.0103 73.5963 61.7503 73.709C61.4903 73.813 61.2606 73.956 61.0613 74.138C60.8706 74.32 60.7146 74.528 60.5933 74.762C60.4806 74.996 60.4243 75.2387 60.4243 75.49H64.5323ZM60.3983 76.192C60.4243 76.4953 60.4979 76.7813 60.6193 77.05C60.7406 77.3187 60.9009 77.5527 61.1003 77.752C61.2996 77.9427 61.5293 78.0943 61.7893 78.207C62.0493 78.3197 62.3309 78.376 62.6343 78.376C63.0936 78.376 63.4879 78.272 63.8173 78.064C64.1553 77.8473 64.4109 77.6003 64.5843 77.323L65.2473 77.869C64.8833 78.3283 64.4803 78.6577 64.0383 78.857C63.6049 79.0563 63.1369 79.156 62.6343 79.156C62.1836 79.156 61.7633 79.078 61.3733 78.922C60.9919 78.7573 60.6626 78.532 60.3853 78.246C60.1079 77.96 59.8869 77.622 59.7223 77.232C59.5663 76.842 59.4883 76.4173 59.4883 75.958C59.4883 75.4987 59.5663 75.074 59.7223 74.684C59.8783 74.294 60.0949 73.956 60.3723 73.67C60.6496 73.384 60.9746 73.163 61.3473 73.007C61.7199 72.8423 62.1229 72.76 62.5563 72.76C63.0156 72.76 63.4273 72.8423 63.7913 73.007C64.1553 73.1717 64.4586 73.3927 64.7013 73.67C64.9526 73.9387 65.1433 74.2593 65.2733 74.632C65.4033 74.996 65.4683 75.386 65.4683 75.802V76.192H60.3983Z" fill="url(#paint10_radial)"/>
<path d="M68.5969 78.376C68.5969 78.558 68.5319 78.7227 68.4019 78.87C68.2719 79.0087 68.1029 79.078 67.8949 79.078C67.6869 79.078 67.5179 79.0087 67.3879 78.87C67.2579 78.7227 67.1929 78.558 67.1929 78.376C67.1929 78.194 67.2579 78.0337 67.3879 77.895C67.5179 77.7477 67.6869 77.674 67.8949 77.674C68.1029 77.674 68.2719 77.7477 68.4019 77.895C68.5319 78.0337 68.5969 78.194 68.5969 78.376Z" fill="url(#paint11_radial)"/>
<path d="M72.2151 78.376C72.2151 78.558 72.1501 78.7227 72.0201 78.87C71.8901 79.0087 71.7211 79.078 71.5131 79.078C71.3051 79.078 71.1361 79.0087 71.0061 78.87C70.8761 78.7227 70.8111 78.558 70.8111 78.376C70.8111 78.194 70.8761 78.0337 71.0061 77.895C71.1361 77.7477 71.3051 77.674 71.5131 77.674C71.7211 77.674 71.8901 77.7477 72.0201 77.895C72.1501 78.0337 72.2151 78.194 72.2151 78.376Z" fill="url(#paint12_radial)"/>
<defs>
<radialGradient id="paint0_radial" cx="0" cy="0" r="1" gradientUnits="userSpaceOnUse" gradientTransform="translate(26.2641 39.1788) rotate(38.437) scale(94.05 361.469)">
<stop offset="0.0411153" stop-color="#65FFF9"/>
<stop offset="0.408847" stop-color="#EBFFFE"/>
<stop offset="0.567273" stop-color="#B6C6FF"/>
<stop offset="0.737021" stop-color="#E1D5FF"/>
<stop offset="0.94756" stop-color="#E0AAFF"/>
</radialGradient>
<radialGradient id="paint1_radial" cx="0" cy="0" r="1" gradientUnits="userSpaceOnUse" gradientTransform="translate(26.2641 39.1788) rotate(38.437) scale(94.05 361.469)">
<stop offset="0.0411153" stop-color="#65FFF9"/>
<stop offset="0.408847" stop-color="#EBFFFE"/>
<stop offset="0.567273" stop-color="#B6C6FF"/>
<stop offset="0.737021" stop-color="#E1D5FF"/>
<stop offset="0.94756" stop-color="#E0AAFF"/>
</radialGradient>
<radialGradient id="paint2_radial" cx="0" cy="0" r="1" gradientUnits="userSpaceOnUse" gradientTransform="translate(26.2641 39.1788) rotate(38.437) scale(94.05 361.469)">
<stop offset="0.0411153" stop-color="#65FFF9"/>
<stop offset="0.408847" stop-color="#EBFFFE"/>
<stop offset="0.567273" stop-color="#B6C6FF"/>
<stop offset="0.737021" stop-color="#E1D5FF"/>
<stop offset="0.94756" stop-color="#E0AAFF"/>
</radialGradient>
<radialGradient id="paint3_radial" cx="0" cy="0" r="1" gradientUnits="userSpaceOnUse" gradientTransform="translate(26.2641 39.1788) rotate(38.437) scale(94.05 361.469)">
<stop offset="0.0411153" stop-color="#65FFF9"/>
<stop offset="0.408847" stop-color="#EBFFFE"/>
<stop offset="0.567273" stop-color="#B6C6FF"/>
<stop offset="0.737021" stop-color="#E1D5FF"/>
<stop offset="0.94756" stop-color="#E0AAFF"/>
</radialGradient>
<radialGradient id="paint4_radial" cx="0" cy="0" r="1" gradientUnits="userSpaceOnUse" gradientTransform="translate(26.2641 39.1788) rotate(38.437) scale(94.05 361.469)">
<stop offset="0.0411153" stop-color="#65FFF9"/>
<stop offset="0.408847" stop-color="#EBFFFE"/>
<stop offset="0.567273" stop-color="#B6C6FF"/>
<stop offset="0.737021" stop-color="#E1D5FF"/>
<stop offset="0.94756" stop-color="#E0AAFF"/>
</radialGradient>
<radialGradient id="paint5_radial" cx="0" cy="0" r="1" gradientUnits="userSpaceOnUse" gradientTransform="translate(26.2641 39.1788) rotate(38.437) scale(94.05 361.469)">
<stop offset="0.0411153" stop-color="#65FFF9"/>
<stop offset="0.408847" stop-color="#EBFFFE"/>
<stop offset="0.567273" stop-color="#B6C6FF"/>
<stop offset="0.737021" stop-color="#E1D5FF"/>
<stop offset="0.94756" stop-color="#E0AAFF"/>
</radialGradient>
<radialGradient id="paint6_radial" cx="0" cy="0" r="1" gradientUnits="userSpaceOnUse" gradientTransform="translate(26.2641 39.1788) rotate(38.437) scale(94.05 361.469)">
<stop offset="0.0411153" stop-color="#65FFF9"/>
<stop offset="0.408847" stop-color="#EBFFFE"/>
<stop offset="0.567273" stop-color="#B6C6FF"/>
<stop offset="0.737021" stop-color="#E1D5FF"/>
<stop offset="0.94756" stop-color="#E0AAFF"/>
</radialGradient>
<radialGradient id="paint7_radial" cx="0" cy="0" r="1" gradientUnits="userSpaceOnUse" gradientTransform="translate(26.2641 39.1788) rotate(38.437) scale(94.05 361.469)">
<stop offset="0.0411153" stop-color="#65FFF9"/>
<stop offset="0.408847" stop-color="#EBFFFE"/>
<stop offset="0.567273" stop-color="#B6C6FF"/>
<stop offset="0.737021" stop-color="#E1D5FF"/>
<stop offset="0.94756" stop-color="#E0AAFF"/>
</radialGradient>
<radialGradient id="paint8_radial" cx="0" cy="0" r="1" gradientUnits="userSpaceOnUse" gradientTransform="translate(26.2641 39.1788) rotate(38.437) scale(94.05 361.469)">
<stop offset="0.0411153" stop-color="#65FFF9"/>
<stop offset="0.408847" stop-color="#EBFFFE"/>
<stop offset="0.567273" stop-color="#B6C6FF"/>
<stop offset="0.737021" stop-color="#E1D5FF"/>
<stop offset="0.94756" stop-color="#E0AAFF"/>
</radialGradient>
<radialGradient id="paint9_radial" cx="0" cy="0" r="1" gradientUnits="userSpaceOnUse" gradientTransform="translate(26.2641 39.1788) rotate(38.437) scale(94.05 361.469)">
<stop offset="0.0411153" stop-color="#65FFF9"/>
<stop offset="0.408847" stop-color="#EBFFFE"/>
<stop offset="0.567273" stop-color="#B6C6FF"/>
<stop offset="0.737021" stop-color="#E1D5FF"/>
<stop offset="0.94756" stop-color="#E0AAFF"/>
</radialGradient>
<radialGradient id="paint10_radial" cx="0" cy="0" r="1" gradientUnits="userSpaceOnUse" gradientTransform="translate(26.2641 39.1788) rotate(38.437) scale(94.05 361.469)">
<stop offset="0.0411153" stop-color="#65FFF9"/>
<stop offset="0.408847" stop-color="#EBFFFE"/>
<stop offset="0.567273" stop-color="#B6C6FF"/>
<stop offset="0.737021" stop-color="#E1D5FF"/>
<stop offset="0.94756" stop-color="#E0AAFF"/>
</radialGradient>
<radialGradient id="paint11_radial" cx="0" cy="0" r="1" gradientUnits="userSpaceOnUse" gradientTransform="translate(26.2641 39.1788) rotate(38.437) scale(94.05 361.469)">
<stop offset="0.0411153" stop-color="#65FFF9"/>
<stop offset="0.408847" stop-color="#EBFFFE"/>
<stop offset="0.567273" stop-color="#B6C6FF"/>
<stop offset="0.737021" stop-color="#E1D5FF"/>
<stop offset="0.94756" stop-color="#E0AAFF"/>
</radialGradient>
<radialGradient id="paint12_radial" cx="0" cy="0" r="1" gradientUnits="userSpaceOnUse" gradientTransform="translate(26.2641 39.1788) rotate(38.437) scale(94.05 361.469)">
<stop offset="0.0411153" stop-color="#65FFF9"/>
<stop offset="0.408847" stop-color="#EBFFFE"/>
<stop offset="0.567273" stop-color="#B6C6FF"/>
<stop offset="0.737021" stop-color="#E1D5FF"/>
<stop offset="0.94756" stop-color="#E0AAFF"/>
</radialGradient>
</defs>
</svg>
