<svg width="132" height="132" viewBox="0 0 132 132" fill="none" xmlns="http://www.w3.org/2000/svg">
<g opacity="0.24">
<path d="M57.8532 61.1617C57.1335 60.7658 56.0636 60.5733 54.582 60.5727C52.5548 60.5735 50.673 60.994 49.9608 61.2595C49.8 61.3111 49.628 61.4499 49.6251 61.6874L49.6256 61.7398L49.8251 62.748L49.83 62.7668C49.8925 62.9721 50.0635 63.0641 50.2192 63.0641H50.2199C50.27 63.062 50.309 63.0523 50.3453 63.0431L50.6827 62.9643C51.5658 62.7432 52.9005 62.4093 54.3909 62.4093C55.295 62.4093 55.9028 62.4881 56.3102 62.6601C56.9712 62.9104 56.9754 63.3377 56.9821 64.0451V65.1031C56.9064 65.1018 56.7786 65.1004 56.5817 65.1004C55.8517 65.1004 54.4164 65.1343 53.0047 65.3606C50.8506 65.6915 49.0682 66.2071 49.0795 69.1751C49.0802 72.9427 52.5749 72.9498 54.2542 72.9533H54.2544C55.3945 72.9531 56.4463 72.7848 57.1333 72.6427C58.7011 72.2787 59.1013 71.7809 59.0803 70.223V63.958C59.0825 63.0025 59.0854 61.8133 57.8531 61.1617H57.8532ZM56.9925 70.8398C56.1581 71.1106 55.2452 71.2477 54.2783 71.2477V71.3357L54.2771 71.2477C52.7321 71.2359 51.2234 71.0592 51.2215 69.0885C51.2314 67.5212 52.0677 67.3347 53.1262 67.0983L53.1996 67.0819C54.1414 66.8807 56.5052 66.8429 56.9928 66.8373L56.9925 70.8398H56.9925ZM76.5494 63.958V70.223C76.5704 71.7809 76.1701 72.2787 74.6025 72.6427C73.9155 72.7848 72.8636 72.9531 71.7235 72.9533H71.7234C70.044 72.9498 66.5494 72.9427 66.5485 69.1751C66.5374 66.2071 68.3198 65.6915 70.4739 65.3606C71.8855 65.1343 73.3208 65.1004 74.0507 65.1004C74.2477 65.1004 74.3754 65.1018 74.4512 65.1031V64.0451C74.4445 63.3377 74.4404 62.9104 73.7794 62.6601C73.3719 62.4881 72.7641 62.4093 71.86 62.4093C70.3695 62.4093 69.0349 62.7432 68.1519 62.9643L67.8145 63.0431C67.7781 63.0523 67.7392 63.062 67.6889 63.0641H67.6883C67.5326 63.0641 67.3616 62.9721 67.2991 62.7668L67.2942 62.748L67.0947 61.7398L67.0942 61.6874C67.0971 61.4499 67.2691 61.3111 67.4299 61.2595C68.1419 60.994 70.0239 60.5736 72.0511 60.5727C73.5327 60.5733 74.6026 60.7658 75.3223 61.1617C76.5544 61.8133 76.5517 63.0025 76.5494 63.958H76.5494ZM74.4619 66.8373C73.9742 66.8429 71.6104 66.8807 70.6687 67.0819L70.5954 67.0983C69.5368 67.3347 68.7006 67.5212 68.6906 69.0885C68.6925 71.0592 70.2013 71.2359 71.7463 71.2477L71.7475 71.3357V71.2477C72.7144 71.2477 73.6273 71.1106 74.4617 70.8398L74.4619 66.8373H74.4619ZM108.194 60.5727C103.327 60.5793 102.914 63.777 102.91 66.7742C102.914 69.7604 103.327 72.9468 108.194 72.9533H108.194C113.057 72.9467 113.471 69.7689 113.478 66.7738C113.473 63.6396 113.061 60.5793 108.194 60.5727H108.194ZM108.194 71.204C105.242 71.191 105.094 69.6758 105.074 66.7747C105.094 63.8576 105.242 62.3348 108.194 62.3219C111.146 62.3348 111.294 63.8576 111.314 66.7734C111.294 69.6758 111.146 71.191 108.194 71.204ZM99.4597 72.5123L99.3326 72.5445C98.652 72.7171 97.7195 72.9533 96.0853 72.9533H96.0852H96.0818C91.5777 72.9467 90.6937 70.6747 90.6887 66.7523C90.6942 62.2534 92.1203 60.5788 95.9506 60.5727C97.3018 60.5727 98.2328 60.7475 98.9007 60.9088L98.8967 57.2852C98.8911 57.1263 98.963 56.9182 99.3392 56.8465L100.535 56.5414H100.601C100.876 56.5482 100.973 56.7932 100.973 57.0007V70.6161C100.992 71.4758 100.891 72.2134 99.4598 72.5123H99.4597ZM98.8978 62.6526C98.4984 62.551 97.3834 62.3001 96.1279 62.3001C93.8218 62.3212 92.8546 62.9477 92.8305 66.7746C92.8576 70.9766 94.1088 71.2038 96.1485 71.2259L96.1497 71.3139V71.2259C97.4192 71.2259 98.5083 70.9612 98.8967 70.8542L98.8978 62.6526ZM88.1469 72.6695H87.0769C86.7903 72.6691 86.5742 72.4526 86.5735 72.1661V64.0888C86.5541 62.7224 86.1458 62.3424 84.6745 62.3219C83.0099 62.3219 81.3251 62.7396 80.7694 62.891V72.1658C80.7689 72.4574 80.5664 72.6691 80.2879 72.6695H79.1963C78.9095 72.6691 78.6931 72.4526 78.6927 72.1661V63.1065C78.6768 62.2679 78.7556 61.6883 79.9484 61.3022C81.0903 60.9079 83.2759 60.5736 84.7194 60.5727C87.4709 60.5762 88.6461 61.5689 88.6499 63.8922V72.1658C88.6495 72.4526 88.4331 72.6691 88.1469 72.6695ZM63.9127 72.8878H63.9137C64.5286 72.8757 64.9834 72.7542 65.1615 72.5543C65.2247 72.4834 65.2539 72.4015 65.246 72.3207C65.2419 72.2543 65.2419 72.2543 65.0732 71.4641L65.0691 71.4452C65.0325 71.2386 64.8852 71.1447 64.7636 71.1447C64.7522 71.1447 64.7411 71.1453 64.7471 71.1461C64.7471 71.1461 64.5926 71.1386 64.4402 71.1386H64.4387C64.0004 71.1247 63.6371 71.0609 63.6296 70.4195V57.0009C63.6292 56.7771 63.4943 56.5475 63.2353 56.5414L63.1589 56.542L61.9606 56.8491C61.7564 56.87 61.5438 57.0152 61.5529 57.2849V70.4633C61.5552 72.0239 62.3928 72.885 63.9118 72.8878H63.9128L63.9127 72.8878ZM46.9879 72.6695H38.4023C38.1157 72.6691 37.8993 72.4526 37.8987 72.1661V71.118C37.8928 70.8611 37.9751 70.7467 38.1334 70.5507L44.9671 62.6058H38.2714C37.9846 62.6052 37.7682 62.3888 37.7678 62.1024V61.3601C37.7683 61.0736 37.9846 60.8572 38.2712 60.8567H46.9442C47.2307 60.8572 47.4471 61.0736 47.4476 61.36V62.4298C47.4517 62.6231 47.3848 62.7871 47.2304 62.9592L40.3794 70.9201H46.9877C47.2743 70.9209 47.4907 71.1372 47.4913 71.4236V72.1658C47.4907 72.4526 47.2743 72.6691 46.9879 72.6695Z" fill="white"/>
<path d="M20.6955 59.5328C19.2117 59.5328 18.4487 63.5844 18.5282 67.3883C18.5261 67.3877 18.5236 67.3888 18.5215 67.3883C18.6008 70.727 19.3391 73.9272 20.8027 73.9272C26.4194 73.9272 32.8187 68.6304 32.8187 66.7317C32.8187 66.2567 32.3349 65.3427 31.6865 64.6213C31.6856 64.6218 31.6839 64.6208 31.6831 64.6213C31.639 64.5701 31.5923 64.519 31.5458 64.4672C29.545 62.2348 25.3941 59.5328 20.6955 59.5328Z" fill="white"/>
</g>
</svg>
